PathFileType	4	(X/Y/Z)	C:\Users\chris\Documents\GitHub\baseballds\vids\pitch0_Sports2D\pitch0_Sports2D_m_person00.trc
DataRate	CameraRate	NumFrames	NumMarkers	Units	OrigDataRate	OrigDataStartFrame	OrigNumFrames
30	30	11	22	m	30	55	110
Frame#	Time	Hip			RHip			RKnee			RAnkle			RBigToe			RSmallToe			RHeel			LHip			LKnee			LAnkle			LBigToe			LSmallToe			LHeel			Neck			Head			Nose			RShoulder			RElbow			RWrist			LShoulder			LElbow			LWrist		
		X1	Y1	Z1	X2	Y2	Z2	X3	Y3	Z3	X4	Y4	Z4	X5	Y5	Z5	X6	Y6	Z6	X7	Y7	Z7	X8	Y8	Z8	X9	Y9	Z9	X10	Y10	Z10	X11	Y11	Z11	X12	Y12	Z12	X13	Y13	Z13	X14	Y14	Z14	X15	Y15	Z15	X16	Y16	Z16	X17	Y17	Z17	X18	Y18	Z18	X19	Y19	Z19	X20	Y20	Z20	X21	Y21	Z21	X22	Y22	Z22
55	1.8333333333333333	1.226190358294679	0.9989626014453474	0.0	1.1107346108211689	0.976747469823573	0.0	1.082985015531687	0.5141129817146696	0.0	1.1136590494002994	0.0989399039855083	0.0	1.1080822372270134	-0.051717423124367855	0.0	1.0690909698624327	-0.0546616536106798	0.0	1.1468888491104527	0.043803160712129356	0.0	1.3334783184033296	1.020287619108518	0.0	1.054706517853081	1.3820866343033862	0.0	0.835204338182143	0.9377660783886315	0.0	0.6306346747846322	1.051235826562369	0.0	0.6436086442624124	1.0179596516024099	0.0	0.8053736423725936	0.8389178056675894	0.0	1.1128272921505802	1.4894364721739841	0.0	1.0209921067260481	1.751524182839528	0.0	1.0392917689265464	1.589423936652479	0.0	0.9438319352924525	1.4673252445832452	0.0	0.8087682399175624	1.2531351345346404	0.0	0.929895369683994	1.4790139263692792	0.0	1.307170723036281	1.510306817518286	0.0	1.372745557741948	1.2514647139302186	0.0	1.1973511378905535	1.4634779228797274	0.0
56	1.8666666666666667	1.238887900818374	0.9987532763098953	0.0	1.1270302836253232	0.9805162185897581	0.0	1.08283106027141	0.5137037899380329	0.0	1.1158022881050302	0.10112691667010992	0.0	1.115058245080719	-0.051488849732023154	0.0	1.0726109158849924	-0.054501148848904515	0.0	1.1475951553915191	0.05088875795872338	0.0	1.341405993446738	1.019073506204187	0.0	1.0483405770581355	1.363421198871042	0.0	0.8580291831942483	0.9024764986442673	0.0	0.6529786462339487	0.9981528032437302	0.0	0.6624229374362158	0.9616369385996201	0.0	0.8348689335088246	0.8083585414390702	0.0	1.1237515251622037	1.484429570482382	0.0	1.0223589183876653	1.750004598682377	0.0	1.0469809225514932	1.5819132420310182	0.0	0.9554726728136177	1.4645318755490169	0.0	0.8211777154262391	1.2429392562681718	0.0	0.9321653685499854	1.4679655211195355	0.0	1.3135211187768951	1.5108280845411475	0.0	1.3803070265649244	1.2519611100388905	0.0	1.209198950456687	1.4626522755361253	0.0
57	1.9	1.2539217959493147	1.000815573037151	0.0	1.1429717766835426	0.9831958761675742	0.0	1.0860748778008138	0.5109482392363112	0.0	1.118315113893745	0.09898174272298543	0.0	1.120415816403682	-0.051815667198156404	0.0	1.0756578666522423	-0.05639391630262235	0.0	1.1482178739855462	0.050755914129859095	0.0	1.3536540463192448	1.0154714162783232	0.0	1.039261357222312	1.3177413258846613	0.0	0.8889097975591372	0.8459176761547181	0.0	0.6822975273235119	0.913529613603958	0.0	0.6931665932000343	0.8729456813017019	0.0	0.8730795872045062	0.7578300515430667	0.0	1.1338255218751265	1.492950640417367	0.0	1.0532693286845154	1.769838175100132	0.0	1.0953883595186271	1.6023039738436664	0.0	0.9656109774665769	1.4614749537333043	0.0	0.8390729147928827	1.2305794862495418	0.0	0.9363687003813711	1.4608137224108466	0.0	1.3226972756074846	1.5114577409458787	0.0	1.388622400285013	1.2526246207750953	0.0	1.221660920100917	1.4549916791414341	0.0
58	1.9333333333333333	1.2664183929688786	1.0075828524067345	0.0	1.154242933185749	0.9841921924346995	0.0	1.0921996913088619	0.5051902307553355	0.0	1.1199430260408263	0.09526402186749819	0.0	1.1218594202786263	-0.05228040564273074	0.0	1.0780182121411466	-0.05723751192110698	0.0	1.1470108346745829	0.04508603637896052	0.0	1.3712348026039622	1.0126133010728737	0.0	1.032745567855515	1.249883450072831	0.0	0.926427104318182	0.7760687255995782	0.0	0.71725174398487	0.8029695233786617	0.0	0.7380191868855184	0.7577654577931007	0.0	0.9216290302320169	0.6932793140821618	0.0	1.1445094229599948	1.5136419240538073	0.0	1.1004115005536785	1.8060251844575184	0.0	1.1682726216743966	1.6452351519754926	0.0	0.9740637043583921	1.4612728558548536	0.0	0.8613728505887188	1.216166020062759	0.0	0.9457240121660756	1.4525755222339027	0.0	1.333205558359802	1.5123082739974147	0.0	1.398970220633703	1.250480410737301	0.0	1.2339012876061004	1.4418326364726	0.0
59	1.9666666666666666	1.2746707642097146	1.0178436849604895	0.0	1.1628130667368606	0.9854758507936688	0.0	1.0987680019120893	0.5004560774666036	0.0	1.1216521898704512	0.0949360790229347	0.0	1.1192775920315519	-0.05246815037027049	0.0	1.0788673404435483	-0.054217873187354285	0.0	1.1453536262932769	0.04022310256547974	0.0	1.3907802656470387	1.0119679022304622	0.0	1.0301836941677258	1.1673005141792874	0.0	0.966343954684199	0.6972015287304935	0.0	0.7573238755278392	0.6729309771483626	0.0	0.7938413550603167	0.6257373947089316	0.0	0.9769798785894199	0.6203699639469957	0.0	1.1561645852177405	1.5336677621707813	0.0	1.1307530103315278	1.8351032588976253	0.0	1.2245775978431772	1.682106517808195	0.0	0.9816416621850395	1.4642896025808387	0.0	0.884184817404554	1.1971061111160661	0.0	0.9591074428175705	1.4317244026093128	0.0	1.3412746043665353	1.5115627474472202	0.0	1.4154237775835306	1.2452398618568217	0.0	1.2458526967237105	1.4238436314201754	0.0
60	2.0	1.2830160918080424	1.0256437756319965	0.0	1.1738635375493167	0.9879843648250448	0.0	1.104298869418586	0.5006001782989534	0.0	1.1254141215159588	0.09836263581419706	0.0	1.1140544266904382	-0.052942093059147675	0.0	1.0783828432281457	-0.04928334247638358	0.0	1.1481995423247113	0.03649169700508429	0.0	1.4068451546480552	1.0126895257770483	0.0	1.0293684278617694	1.0740550007518628	0.0	1.0038166939011974	0.6087793318850774	0.0	0.802558194346351	0.5340037055765985	0.0	0.8557742292571596	0.49235593209199846	0.0	1.0305885087718574	0.5402961797878469	0.0	1.1662552883978141	1.5425123012033561	0.0	1.1348658292432918	1.8422260232894727	0.0	1.2475325287956196	1.6936643765001598	0.0	0.9895876897560251	1.4663891299380758	0.0	0.9056518699025095	1.1721953727280772	0.0	0.9768560567816198	1.3890010345936614	0.0	1.346680671304202	1.5063747661386422	0.0	1.4407098895364967	1.2396533195264239	0.0	1.2574997843701623	1.3968157661227292	0.0
61	2.033333333333333	1.2962236771720612	1.0246296788240774	0.0	1.1904796678727343	0.9855663756904232	0.0	1.111054503248578	0.5033083870288978	0.0	1.1314457888630103	0.10216129471310982	0.0	1.1103257212594533	-0.05347832685636863	0.0	1.077935732398765	-0.044899553656034076	0.0	1.1574493021200116	0.032122556107530814	0.0	1.4192231076101245	1.010757518039538	0.0	1.0313638903732167	0.9725225152541395	0.0	1.037777220832024	0.512537939033469	0.0	0.8544960293821502	0.39923359941937053	0.0	0.9192041819809552	0.37213186184168634	0.0	1.0769679827957046	0.452802692451086	0.0	1.1738594425217665	1.5401360724124868	0.0	1.130395416718588	1.8328332454263543	0.0	1.2536801516328355	1.6864370696726245	0.0	0.9988190740268015	1.4574171487692378	0.0	0.9274150043717078	1.1428475087384056	0.0	0.9984442538474012	1.3282009206740062	0.0	1.3530497864980804	1.4965696147359673	0.0	1.473656155062054	1.2323607734733903	0.0	1.2715464688471199	1.3587558118534262	0.0
62	2.0666666666666664	1.313281472925492	1.013824614353559	0.0	1.210505699440439	0.9722004249786763	0.0	1.122214248838866	0.504145750628956	0.0	1.136414103262497	0.1074130115202322	0.0	1.1096749662146221	-0.05319374583096817	0.0	1.0745957969630238	-0.04079131819708063	0.0	1.1666106137763623	0.0345587560206746	0.0	1.4315654689144612	1.002024429886979	0.0	1.04530335514744	0.8693053991007689	0.0	1.0697645823667945	0.4196266758122051	0.0	0.9103173985403359	0.2774949466309766	0.0	0.9763596072534984	0.2690274575872778	0.0	1.1142301102417316	0.3646377156271169	0.0	1.1810131623237827	1.5304938749430939	0.0	1.1320948942103863	1.817583494441654	0.0	1.2601256204101672	1.6733101842820968	0.0	1.008114760234381	1.4298767101310885	0.0	0.9518595061442878	1.1108419286488116	0.0	1.0169870792175324	1.2680487873872468	0.0	1.3633757792177374	1.4839887790978838	0.0	1.5107204295851389	1.2226762875409591	0.0	1.2913196820780684	1.3159900041628316	0.0
63	2.1	1.3305543375471918	0.9965128310242256	0.0	1.2289475269937444	0.9499056999546568	0.0	1.136357894237688	0.5022482656178858	0.0	1.136819034263778	0.11565314892542274	0.0	1.1024762528827774	-0.05344273524027363	0.0	1.0602556142587296	-0.037395171389239784	0.0	1.1689392618994519	0.049102855642808314	0.0	1.4460067617170358	0.9865525472064306	0.0	1.081192283968642	0.7799280461484921	0.0	1.100405505370833	0.34073360348569004	0.0	0.9609307362255649	0.1697172709860875	0.0	1.0209192693572666	0.1762657251170473	0.0	1.1397059814421948	0.2826543706682559	0.0	1.1907051825124966	1.515844317650735	0.0	1.1416805386688968	1.801666972543587	0.0	1.2701905162560614	1.6572124790247775	0.0	1.0163498469889605	1.3909641020807522	0.0	0.9787134793854438	1.0780293714921168	0.0	1.0294724919364773	1.2224438843835774	0.0	1.378202611002861	1.4698363665412715	0.0	1.5476595953958838	1.213701625526578	0.0	1.3184832209357755	1.2752057470612141	0.0
64	2.1333333333333333	1.3483261544014804	0.9757908457605651	0.0	1.2451026379718213	0.9251680303917067	0.0	1.1511253999966842	0.49760210765134155	0.0	1.1355061395878254	0.11821927996242775	0.0	1.0813366088190792	-0.05636281212449315	0.0	1.0368654179958317	-0.037175502022085645	0.0	1.166803238357086	0.060014541153203774	0.0	1.4633948329815278	0.9676077485203031	0.0	1.1386172954594604	0.7155068718554964	0.0	1.129649488115575	0.2710117476961454	0.0	0.9999479888840925	0.0738258067537142	0.0	1.0555305914822124	0.08779323809038597	0.0	1.1557346118260832	0.20289364999579712	0.0	1.2039598233754627	1.4973458928342742	0.0	1.1545126706057989	1.785282458306909	0.0	1.2810274669954025	1.636038837078604	0.0	1.025226507825971	1.355424821910678	0.0	1.0039736590606758	1.0494641048291513	0.0	1.0473973150756732	1.1797746699989557	0.0	1.3958633638275098	1.454480452225582	0.0	1.5817198596589939	1.2067540953191742	0.0	1.3552109812311397	1.2345741447981307	0.0
65	2.1666666666666665	1.36838547392652	0.951524949726356	0.0	1.2630883539933988	0.9012444199963742	0.0	1.167770580844085	0.48510254704487676	0.0	1.1390770006890505	0.10741183501240022	0.0	1.0658392829427725	-0.06188251062358068	0.0	1.0261872773419018	-0.04203275997669538	0.0	1.1658301602895698	0.05163883350042705	0.0	1.483026444919783	0.945792314079418	0.0	1.204973770895591	0.6570117961506777	0.0	1.1592775615058846	0.19634071917409412	0.0	1.0320670626498605	-0.00733870982415585	0.0	1.0906491596683596	0.006425184984679489	0.0	1.1729725512849374	0.11823355141407677	0.0	1.218146684681743	1.4760181995375417	0.0	1.1673654489860217	1.7669232508367072	0.0	1.291161264306292	1.6118613746973813	0.0	1.0367268980437827	1.328399602486637	0.0	1.0247464927245662	1.031440444678131	0.0	1.0791745721912265	1.1181636865446318	0.0	1.4133455797285874	1.4375668376783743	0.0	1.6134136700660406	1.202342708054948	0.0	1.4042693303503284	1.1888707599835469	0.0
